<svg version="1.0" xmlns="http://www.w3.org/2000/svg" width="500.000000pt" height="500.000000pt" viewBox="0 0 500.000000 500.000000" preserveAspectRatio="xMidYMid meet"><g transform="translate(0.000000,500.000000) scale(0.100000,-0.100000)" fill="#00ffea" stroke="none"><path d="M1730 2839 c-55 -17 -86 -45 -111 -101 -21 -46 -24 -68 -24 -174 0 -114 2 -123 30 -179 38 -74 83 -100 170 -100 63 1 129 16 158 37 15 11 16 18 5 44 l-11 31 -55 -19 c-76 -27 -149 -22 -173 12 -39 53 -47 245 -14 327 20 48 46 57 146 50 l87 -6 5 32 c3 18 2 36 -2 40 -12 13 -173 17 -211 6z"/><path d="M987 2833 c-3 -5 -8 -128 -12 -275 l-7 -268 46 0 46 0 1 228 1 227 52 -155 53 -155 49 -3 49 -3 50 161 50 160 3 -230 2 -230 46 0 46 0 -6 223 c-4 122 -9 246 -12 275 l-5 52 -59 0 c-57 0 -59 -1 -69 -32 -5 -18 -28 -93 -51 -167 -23 -73 -45 -129 -49 -125 -4 5 -29 80 -56 167 l-49 157 -57 0 c-32 0 -60 -3 -62 -7z"/><path d="M2107 2833 c-3 -5 -8 -128 -12 -275 l-7 -268 46 0 46 0 1 228 1 227 52 -155 53 -155 49 -3 49 -3 50 161 50 160 3 -230 2 -230 46 0 46 0 -6 223 c-4 122 -9 246 -12 275 l-5 52 -59 0 c-57 0 -59 -1 -69 -32 -5 -18 -28 -93 -51 -167 -23 -73 -45 -129 -49 -125 -4 5 -29 80 -56 167 l-49 157 -57 0 c-32 0 -60 -3 -62 -7z"/><path d="M2760 2588 c-45 -139 -85 -265 -90 -280 -8 -24 -5 -28 22 -37 17 -6 32 -10 33 -9 17 32 174 552 169 558 -5 4 -19 11 -31 14 -20 7 -26 -6 -103 -246z"/><path d="M770 2675 l-125 -125 122 -122 122 -122 26 24 26 24 -98 98 -98 98 100 100 100 100 -25 25 -25 25 -125 -125z"/><path d="M2940 2775 l-24 -26 97 -97 97 -97 -100 -100 -100 -100 25 -25 25 -25 120 120 c66 66 120 124 120 130 0 6 -53 63 -118 128 l-118 118 -24 -26z"/></g></svg>